<svg width="12" height="12" xmlns="http://www.w3.org/2000/svg" xmlns:xlink="http://www.w3.org/1999/xlink"><title>Refresh icon</title><desc>A blue circular refresh icon</desc><defs><path d="M13.238 4.763A5.968 5.968 0 009 3a5.992 5.992 0 00-5.992 6c0 3.315 2.677 6 5.992 6a5.987 5.987 0 005.797-4.5h-1.56A4.493 4.493 0 019 13.5 4.504 4.504 0 014.5 9c0-2.482 2.018-4.5 4.5-4.5 1.245 0 2.355.518 3.165 1.335L9.75 8.25H15V3l-1.762 1.763z" id="a"/></defs><g transform="translate(-3 -3)" fill="none" fill-rule="evenodd"><path d="M0 0h18v18H0z"/><mask id="b" fill="#fff"><use xlink:href="#a"/></mask><use fill="#000" xlink:href="#a"/><g mask="url(#b)" fill="#0677BA"><path d="M0 0h18v18H0z"/></g></g></svg>
